<mxfile host="app.diagrams.net" agent="Mozilla/5.0 (Windows NT 10.0; Win64; x64) AppleWebKit/537.36 (KHTML, like Gecko) Chrome/134.0.0.0 Safari/537.36" version="26.1.1">
  <diagram id="JJhgQ8FKzwopOSUzlQKo" name="Do 5 ao 7">
    <mxGraphModel grid="1" page="0" gridSize="10" guides="1" tooltips="1" connect="1" arrows="1" fold="1" pageScale="1" pageWidth="850" pageHeight="1100" math="0" shadow="0">
      <root>
        <mxCell id="0" />
        <mxCell id="1" parent="0" />
        <mxCell id="Fu48dKBpDzwdnP1uDr6j-1" value="&lt;b&gt;ALGORITMO&lt;/b&gt;" style="text;html=1;align=left;verticalAlign=middle;whiteSpace=wrap;rounded=0;fontSize=14;" vertex="1" parent="1">
          <mxGeometry x="-2660" y="-1160" width="130" height="30" as="geometry" />
        </mxCell>
        <mxCell id="Fu48dKBpDzwdnP1uDr6j-2" value="&lt;b&gt;FLUXOGRAMA&lt;/b&gt;" style="text;html=1;align=center;verticalAlign=middle;whiteSpace=wrap;rounded=0;fontSize=14;" vertex="1" parent="1">
          <mxGeometry x="-2365" y="-1160" width="130" height="30" as="geometry" />
        </mxCell>
        <mxCell id="Fu48dKBpDzwdnP1uDr6j-3" value="algoritmo &quot;Tabuada&quot;&lt;div&gt;&lt;span style=&quot;background-color: transparent; color: light-dark(rgb(0, 0, 0), rgb(255, 255, 255));&quot;&gt;var&lt;/span&gt;&lt;div&gt;&lt;span style=&quot;white-space: pre;&quot;&gt;&#x9;&lt;/span&gt;&lt;span style=&quot;background-color: transparent; color: light-dark(rgb(0, 0, 0), rgb(255, 255, 255));&quot;&gt;num, i: Inteiro&lt;/span&gt;&lt;br&gt;&lt;/div&gt;&lt;div&gt;início&lt;br&gt;&lt;/div&gt;&lt;div&gt;&lt;span style=&quot;white-space: pre;&quot;&gt;&#x9;&lt;/span&gt;i = 0&lt;br&gt;&lt;/div&gt;&lt;div&gt;&lt;span style=&quot;background-color: transparent; color: light-dark(rgb(0, 0, 0), rgb(255, 255, 255)); white-space: pre;&quot;&gt;&#x9;&lt;/span&gt;e&lt;span style=&quot;background-color: transparent; color: light-dark(rgb(0, 0, 0), rgb(255, 255, 255));&quot;&gt;screva(&quot;Digite um número entre 1 e 10.&quot;)&lt;/span&gt;&lt;/div&gt;&lt;div&gt;&lt;span style=&quot;white-space: pre;&quot;&gt;&#x9;&lt;/span&gt;leia(Num)&lt;/div&gt;&lt;div&gt;&lt;br&gt;&lt;/div&gt;&lt;div&gt;&lt;span style=&quot;white-space: pre;&quot;&gt;&#x9;&lt;/span&gt;para i de 0 até 10 faça&lt;/div&gt;&lt;div&gt;&lt;span style=&quot;white-space: pre;&quot;&gt;&#x9;&lt;span style=&quot;white-space: pre;&quot;&gt;&#x9;&lt;/span&gt;&lt;/span&gt;num,&quot; x&quot;,i,&quot; =&quot;,i*num&lt;br&gt;&lt;/div&gt;&lt;div&gt;&lt;span style=&quot;background-color: transparent; color: light-dark(rgb(0, 0, 0), rgb(255, 255, 255)); white-space: pre;&quot;&gt;&#x9;&lt;/span&gt;&lt;span style=&quot;background-color: transparent; color: light-dark(rgb(0, 0, 0), rgb(255, 255, 255));&quot;&gt;fimpara&lt;/span&gt;&lt;/div&gt;&lt;div&gt;&lt;span style=&quot;background-color: transparent; color: light-dark(rgb(0, 0, 0), rgb(255, 255, 255));&quot;&gt;fimalgoritmo&lt;/span&gt;&lt;/div&gt;&lt;/div&gt;" style="text;html=1;align=left;verticalAlign=middle;whiteSpace=wrap;rounded=0;fontSize=13;labelPosition=center;verticalLabelPosition=middle;" vertex="1" parent="1">
          <mxGeometry x="-2680" y="-1130" width="290" height="200" as="geometry" />
        </mxCell>
        <mxCell id="Fu48dKBpDzwdnP1uDr6j-4" value="&lt;font style=&quot;font-size: 16px;&quot;&gt;&lt;b&gt;5) Tabuada de Multiplicação&lt;/b&gt;&lt;/font&gt;" style="text;html=1;align=left;verticalAlign=middle;whiteSpace=wrap;rounded=0;fontSize=14;" vertex="1" parent="1">
          <mxGeometry x="-2680" y="-1190" width="270" height="30" as="geometry" />
        </mxCell>
        <mxCell id="TwmdyXeMpT4Z-iOjlKda-2" style="edgeStyle=orthogonalEdgeStyle;rounded=0;orthogonalLoop=1;jettySize=auto;html=1;exitX=0.5;exitY=1;exitDx=0;exitDy=0;exitPerimeter=0;" edge="1" parent="1" source="Fu48dKBpDzwdnP1uDr6j-5" target="TwmdyXeMpT4Z-iOjlKda-1">
          <mxGeometry relative="1" as="geometry" />
        </mxCell>
        <mxCell id="Fu48dKBpDzwdnP1uDr6j-5" value="Início" style="strokeWidth=1;html=1;shape=mxgraph.flowchart.terminator;whiteSpace=wrap;" vertex="1" parent="1">
          <mxGeometry x="-2350" y="-1120" width="100" height="40" as="geometry" />
        </mxCell>
        <mxCell id="Fu48dKBpDzwdnP1uDr6j-6" value="Fim" style="strokeWidth=1;html=1;shape=mxgraph.flowchart.terminator;whiteSpace=wrap;" vertex="1" parent="1">
          <mxGeometry x="-2352.49" y="-420" width="105" height="40" as="geometry" />
        </mxCell>
        <mxCell id="xQTn7j4tpoTURZrxBgp_-2" style="edgeStyle=orthogonalEdgeStyle;rounded=0;orthogonalLoop=1;jettySize=auto;html=1;exitX=0.5;exitY=1;exitDx=0;exitDy=0;entryX=0.5;entryY=0;entryDx=0;entryDy=0;" edge="1" parent="1" source="TwmdyXeMpT4Z-iOjlKda-1" target="xQTn7j4tpoTURZrxBgp_-1">
          <mxGeometry relative="1" as="geometry" />
        </mxCell>
        <mxCell id="TwmdyXeMpT4Z-iOjlKda-1" value="num: int&lt;div&gt;i: int&lt;/div&gt;" style="rounded=0;whiteSpace=wrap;html=1;dashed=1;dashPattern=8 8;" vertex="1" parent="1">
          <mxGeometry x="-2360" y="-1050" width="120" height="60" as="geometry" />
        </mxCell>
        <mxCell id="ZRRnsx5NuhFNho3dfJxB-2" value="" style="edgeStyle=orthogonalEdgeStyle;rounded=0;orthogonalLoop=1;jettySize=auto;html=1;" edge="1" parent="1" source="xQTn7j4tpoTURZrxBgp_-1" target="ZRRnsx5NuhFNho3dfJxB-1">
          <mxGeometry relative="1" as="geometry" />
        </mxCell>
        <mxCell id="xQTn7j4tpoTURZrxBgp_-1" value="&quot;Digite um número&lt;div&gt;entre 1 e 10&quot;&lt;/div&gt;" style="shape=parallelogram;perimeter=parallelogramPerimeter;whiteSpace=wrap;html=1;fixedSize=1;" vertex="1" parent="1">
          <mxGeometry x="-2367.5" y="-960" width="135" height="60" as="geometry" />
        </mxCell>
        <mxCell id="ZRRnsx5NuhFNho3dfJxB-4" value="" style="edgeStyle=orthogonalEdgeStyle;rounded=0;orthogonalLoop=1;jettySize=auto;html=1;" edge="1" parent="1" source="ZRRnsx5NuhFNho3dfJxB-1" target="ZRRnsx5NuhFNho3dfJxB-3">
          <mxGeometry relative="1" as="geometry" />
        </mxCell>
        <mxCell id="ZRRnsx5NuhFNho3dfJxB-1" value="&lt;div&gt;&lt;br&gt;&lt;/div&gt;Num" style="shape=manualInput;whiteSpace=wrap;html=1;" vertex="1" parent="1">
          <mxGeometry x="-2346.25" y="-880" width="92.5" height="50" as="geometry" />
        </mxCell>
        <mxCell id="ZRRnsx5NuhFNho3dfJxB-6" value="" style="edgeStyle=orthogonalEdgeStyle;rounded=0;orthogonalLoop=1;jettySize=auto;html=1;" edge="1" parent="1" source="ZRRnsx5NuhFNho3dfJxB-3" target="ZRRnsx5NuhFNho3dfJxB-5">
          <mxGeometry relative="1" as="geometry" />
        </mxCell>
        <mxCell id="ZRRnsx5NuhFNho3dfJxB-3" value="i = 0" style="rounded=0;whiteSpace=wrap;html=1;" vertex="1" parent="1">
          <mxGeometry x="-2360" y="-800" width="120" height="60" as="geometry" />
        </mxCell>
        <mxCell id="ZRRnsx5NuhFNho3dfJxB-8" value="" style="edgeStyle=orthogonalEdgeStyle;rounded=0;orthogonalLoop=1;jettySize=auto;html=1;" edge="1" parent="1" source="ZRRnsx5NuhFNho3dfJxB-5" target="ZRRnsx5NuhFNho3dfJxB-7">
          <mxGeometry relative="1" as="geometry" />
        </mxCell>
        <mxCell id="ZRRnsx5NuhFNho3dfJxB-13" value="Sim" style="edgeLabel;html=1;align=center;verticalAlign=middle;resizable=0;points=[];" connectable="0" vertex="1" parent="ZRRnsx5NuhFNho3dfJxB-8">
          <mxGeometry x="-0.1995" y="-1" relative="1" as="geometry">
            <mxPoint y="3" as="offset" />
          </mxGeometry>
        </mxCell>
        <mxCell id="ZRRnsx5NuhFNho3dfJxB-5" value="i &amp;lt;= 10 ?" style="rhombus;whiteSpace=wrap;html=1;" vertex="1" parent="1">
          <mxGeometry x="-2348.12" y="-710" width="96.25" height="80" as="geometry" />
        </mxCell>
        <mxCell id="ZRRnsx5NuhFNho3dfJxB-10" value="" style="edgeStyle=orthogonalEdgeStyle;rounded=0;orthogonalLoop=1;jettySize=auto;html=1;" edge="1" parent="1" source="ZRRnsx5NuhFNho3dfJxB-7" target="ZRRnsx5NuhFNho3dfJxB-9">
          <mxGeometry relative="1" as="geometry" />
        </mxCell>
        <mxCell id="ZRRnsx5NuhFNho3dfJxB-7" value="Escreva num, &quot; x &quot;, i, &quot; = &quot;, i * num" style="whiteSpace=wrap;html=1;" vertex="1" parent="1">
          <mxGeometry x="-2359.995" y="-600" width="120" height="60" as="geometry" />
        </mxCell>
        <mxCell id="ZRRnsx5NuhFNho3dfJxB-11" style="edgeStyle=orthogonalEdgeStyle;rounded=0;orthogonalLoop=1;jettySize=auto;html=1;entryX=0;entryY=0.5;entryDx=0;entryDy=0;" edge="1" parent="1" source="ZRRnsx5NuhFNho3dfJxB-9" target="ZRRnsx5NuhFNho3dfJxB-5">
          <mxGeometry relative="1" as="geometry">
            <Array as="points">
              <mxPoint x="-2390" y="-490" />
              <mxPoint x="-2390" y="-670" />
            </Array>
          </mxGeometry>
        </mxCell>
        <mxCell id="ZRRnsx5NuhFNho3dfJxB-9" value="i = i + 1" style="whiteSpace=wrap;html=1;" vertex="1" parent="1">
          <mxGeometry x="-2359.995" y="-510" width="120" height="60" as="geometry" />
        </mxCell>
        <mxCell id="ZRRnsx5NuhFNho3dfJxB-14" style="edgeStyle=orthogonalEdgeStyle;rounded=0;orthogonalLoop=1;jettySize=auto;html=1;exitX=1;exitY=0.5;exitDx=0;exitDy=0;entryX=1;entryY=0.5;entryDx=0;entryDy=0;entryPerimeter=0;" edge="1" parent="1" source="ZRRnsx5NuhFNho3dfJxB-5" target="Fu48dKBpDzwdnP1uDr6j-6">
          <mxGeometry relative="1" as="geometry">
            <Array as="points">
              <mxPoint x="-2220" y="-670" />
              <mxPoint x="-2220" y="-400" />
            </Array>
          </mxGeometry>
        </mxCell>
        <mxCell id="ZRRnsx5NuhFNho3dfJxB-15" value="Não" style="edgeLabel;html=1;align=center;verticalAlign=middle;resizable=0;points=[];" connectable="0" vertex="1" parent="ZRRnsx5NuhFNho3dfJxB-14">
          <mxGeometry x="-0.9328" y="-4" relative="1" as="geometry">
            <mxPoint x="5" y="-4" as="offset" />
          </mxGeometry>
        </mxCell>
        <mxCell id="ZRRnsx5NuhFNho3dfJxB-16" value="&lt;b&gt;ALGORITMO&lt;/b&gt;" style="text;html=1;align=left;verticalAlign=middle;whiteSpace=wrap;rounded=0;fontSize=14;" vertex="1" parent="1">
          <mxGeometry x="-2170" y="-1160" width="130" height="30" as="geometry" />
        </mxCell>
        <mxCell id="ZRRnsx5NuhFNho3dfJxB-17" value="&lt;b&gt;FLUXOGRAMA&lt;/b&gt;" style="text;html=1;align=center;verticalAlign=middle;whiteSpace=wrap;rounded=0;fontSize=14;" vertex="1" parent="1">
          <mxGeometry x="-1875" y="-1160" width="130" height="30" as="geometry" />
        </mxCell>
        <mxCell id="ZRRnsx5NuhFNho3dfJxB-18" value="algoritmo &quot;BônusSalário&quot;&lt;div&gt;&lt;span style=&quot;background-color: transparent; color: light-dark(rgb(0, 0, 0), rgb(255, 255, 255));&quot;&gt;var&lt;/span&gt;&lt;div&gt;&lt;br&gt;&lt;/div&gt;&lt;div&gt;base, bônus: inteiro&lt;/div&gt;&lt;div&gt;&lt;span style=&quot;white-space: pre;&quot;&gt;&#x9;&lt;/span&gt;&lt;br&gt;&lt;/div&gt;&lt;div&gt;início&lt;br&gt;&lt;/div&gt;&lt;div&gt;&lt;span style=&quot;background-color: transparent; color: light-dark(rgb(0, 0, 0), rgb(255, 255, 255));&quot;&gt;fimalgoritmo&lt;/span&gt;&lt;/div&gt;&lt;/div&gt;" style="text;html=1;align=left;verticalAlign=middle;whiteSpace=wrap;rounded=0;fontSize=13;labelPosition=center;verticalLabelPosition=middle;" vertex="1" parent="1">
          <mxGeometry x="-2190" y="-1130" width="290" height="200" as="geometry" />
        </mxCell>
        <mxCell id="ZRRnsx5NuhFNho3dfJxB-19" value="&lt;font style=&quot;font-size: 16px;&quot;&gt;&lt;b&gt;6) Cálculo de Salário c/Bônus&lt;/b&gt;&lt;/font&gt;" style="text;html=1;align=left;verticalAlign=middle;whiteSpace=wrap;rounded=0;fontSize=14;" vertex="1" parent="1">
          <mxGeometry x="-2190" y="-1190" width="270" height="30" as="geometry" />
        </mxCell>
        <mxCell id="ZRRnsx5NuhFNho3dfJxB-20" value="Início" style="strokeWidth=1;html=1;shape=mxgraph.flowchart.terminator;whiteSpace=wrap;" vertex="1" parent="1">
          <mxGeometry x="-1860" y="-1120" width="100" height="40" as="geometry" />
        </mxCell>
        <mxCell id="ZRRnsx5NuhFNho3dfJxB-21" value="&lt;b&gt;ALGORITMO&lt;/b&gt;" style="text;html=1;align=left;verticalAlign=middle;whiteSpace=wrap;rounded=0;fontSize=14;" vertex="1" parent="1">
          <mxGeometry x="-1660" y="-1160" width="130" height="30" as="geometry" />
        </mxCell>
        <mxCell id="ZRRnsx5NuhFNho3dfJxB-22" value="&lt;b&gt;FLUXOGRAMA&lt;/b&gt;" style="text;html=1;align=center;verticalAlign=middle;whiteSpace=wrap;rounded=0;fontSize=14;" vertex="1" parent="1">
          <mxGeometry x="-1365" y="-1160" width="130" height="30" as="geometry" />
        </mxCell>
        <mxCell id="ZRRnsx5NuhFNho3dfJxB-23" value="algoritmo &quot;NPrimo&quot;&lt;div&gt;&lt;span style=&quot;background-color: transparent; color: light-dark(rgb(0, 0, 0), rgb(255, 255, 255));&quot;&gt;var&lt;/span&gt;&lt;div&gt;&lt;span style=&quot;white-space: pre;&quot;&gt;&#x9;&lt;/span&gt;&lt;br&gt;&lt;/div&gt;&lt;div&gt;início&lt;br&gt;&lt;/div&gt;&lt;div&gt;&lt;span style=&quot;white-space: pre;&quot;&gt;&#x9;&lt;/span&gt;&lt;span style=&quot;background-color: transparent; color: light-dark(rgb(0, 0, 0), rgb(255, 255, 255));&quot;&gt;fimalgoritmo&lt;/span&gt;&lt;/div&gt;&lt;/div&gt;" style="text;html=1;align=left;verticalAlign=middle;whiteSpace=wrap;rounded=0;fontSize=13;labelPosition=center;verticalLabelPosition=middle;" vertex="1" parent="1">
          <mxGeometry x="-1680" y="-1130" width="290" height="200" as="geometry" />
        </mxCell>
        <mxCell id="ZRRnsx5NuhFNho3dfJxB-24" value="&lt;font style=&quot;font-size: 16px;&quot;&gt;&lt;b&gt;7) Verificação de Nº Primo&lt;/b&gt;&lt;/font&gt;" style="text;html=1;align=left;verticalAlign=middle;whiteSpace=wrap;rounded=0;fontSize=14;" vertex="1" parent="1">
          <mxGeometry x="-1680" y="-1190" width="270" height="30" as="geometry" />
        </mxCell>
        <mxCell id="ZRRnsx5NuhFNho3dfJxB-25" value="Início" style="strokeWidth=1;html=1;shape=mxgraph.flowchart.terminator;whiteSpace=wrap;" vertex="1" parent="1">
          <mxGeometry x="-1350" y="-1120" width="100" height="40" as="geometry" />
        </mxCell>
      </root>
    </mxGraphModel>
  </diagram>
</mxfile>
